<svg width="34" height="32" viewBox="0 0 34 32" fill="none" xmlns="http://www.w3.org/2000/svg">
<path d="M1.81905 19.1063C1.41582 17.7455 1.10501 14.8431 1 13.562C1.09784 9.11042 3.73576 7.06834 5.15823 6.54874C5.25904 5.77678 2.89011 6.28236 1.69304 6.63165C3.20512 4.0611 5.64126 3.04045 6.67032 2.85144C7.93039 2.34741 11.1856 2.51541 12.6557 2.66241C15.075 1.09993 18.116 0.919316 19.334 1.02432C23.0134 1.02432 26.7054 3.41846 28.0915 4.61552C30.2084 6.32922 31.8297 9.6138 32.3758 11.0419C33.0814 12.8564 33.0478 15.4521 32.9428 16.5232C32.6908 19.497 31.3677 22.5505 30.7377 23.7056L30.5487 23.5796C30.095 16.624 27.2935 13.121 25.9494 12.2389C25.9494 12.7934 25.6974 13.94 25.5714 14.4441C24.9665 16.0066 22.3792 18.4133 21.1611 19.4214L20.9721 19.1063C19.5104 14.4693 17.2129 12.596 16.2469 12.2389C15.39 11.4325 13.2017 12.0709 12.2146 12.491C9.44247 14.003 8.41342 17.1952 8.24541 18.6023H8.0564C5.83867 17.2918 5.36825 15.7461 5.41025 15.1371C3.94857 16.2964 3.91916 21.8365 4.08717 24.4616L1.81905 19.1063Z" fill="#3A54B4"/>
<path d="M5.28424 6.50563C5.24343 6.51861 5.20139 6.53298 5.15823 6.54874M5.15823 6.54874C3.73576 7.06834 1.09784 9.11042 1 13.562C1.10501 14.8431 1.41582 17.7455 1.81905 19.1063L4.08717 24.4616C3.91916 21.8365 3.94857 16.2964 5.41025 15.1371C5.36825 15.7461 5.83867 17.2918 8.0564 18.6023H8.24541C8.41342 17.1952 9.44247 14.003 12.2146 12.491C13.2017 12.0709 15.39 11.4325 16.2469 12.239C17.2129 12.596 19.5104 14.4693 20.9721 19.1063L21.1611 19.4214C22.3792 18.4133 24.9665 16.0066 25.5714 14.4441C25.6974 13.94 25.9494 12.7934 25.9494 12.239C27.2935 13.121 30.095 16.624 30.5487 23.5796L30.7377 23.7056C31.3677 22.5505 32.6908 19.497 32.9428 16.5232C33.0478 15.4521 33.0814 12.8564 32.3758 11.0419C31.8297 9.6138 30.2084 6.32922 28.0915 4.61552C26.7054 3.41846 23.0134 1.02432 19.334 1.02432C18.116 0.919316 15.075 1.09993 12.6557 2.66241C11.1856 2.51541 7.93039 2.34741 6.67032 2.85144C5.64126 3.04045 3.20512 4.0611 1.69304 6.63165C2.89011 6.28236 5.25904 5.77678 5.15823 6.54874Z" stroke="#3A54B4"/>
<path d="M13.0966 13.688L12.5296 14.129L14.4197 16.3971L12.4666 17.3422L14.9868 20.1774L15.5538 19.6103L13.6007 17.5312L15.6798 16.5862L13.0966 13.688Z" fill="#3A54B4" stroke="#3A54B4"/>
<circle cx="10.6396" cy="25.4068" r="5.17032" stroke="#3A54B4"/>
<circle cx="23.9963" cy="25.4068" r="5.17032" stroke="#3A54B4"/>
<path d="M18.578 24.0837C17.5195 23.126 16.4149 23.6427 15.9948 24.0207L16.1208 25.0287C17.1289 24.0711 18.053 24.6717 18.389 25.0917L18.578 24.0837Z" fill="#3A54B4"/>
</svg>
